<mxfile host="app.diagrams.net" modified="2020-09-01T19:55:34.591Z" agent="5.0 (Windows NT 10.0; Win64; x64) AppleWebKit/537.36 (KHTML, like Gecko) Chrome/85.0.4183.83 Safari/537.36" etag="IMQN6Rg-D46YHvxtdmI0" version="13.6.6" type="github">
  <diagram id="8UcziRhmI2X-EfAlGP2M" name="Page-1">
    <mxGraphModel dx="1455" dy="1102" grid="1" gridSize="10" guides="1" tooltips="1" connect="1" arrows="1" fold="1" page="1" pageScale="1" pageWidth="827" pageHeight="1169" math="0" shadow="0">
      <root>
        <mxCell id="0" />
        <mxCell id="1" parent="0" />
        <mxCell id="GcwQqaIXfLsDvNdTefa0-13" value="" style="rounded=1;whiteSpace=wrap;html=1;fillColor=#d80073;arcSize=6;strokeColor=#A50040;fontColor=#ffffff;" vertex="1" parent="1">
          <mxGeometry x="30" y="55" width="690" height="460" as="geometry" />
        </mxCell>
        <mxCell id="GcwQqaIXfLsDvNdTefa0-14" value="&lt;b&gt;&lt;font style=&quot;font-size: 18px&quot;&gt;COVID 19 TRACKER&lt;/font&gt;&lt;/b&gt;" style="text;html=1;strokeColor=none;fillColor=none;align=center;verticalAlign=middle;whiteSpace=wrap;rounded=0;" vertex="1" parent="1">
          <mxGeometry x="100" y="90" width="210" height="20" as="geometry" />
        </mxCell>
        <mxCell id="GcwQqaIXfLsDvNdTefa0-15" value="" style="rounded=1;whiteSpace=wrap;html=1;" vertex="1" parent="1">
          <mxGeometry x="320" y="85" width="140" height="30" as="geometry" />
        </mxCell>
        <mxCell id="GcwQqaIXfLsDvNdTefa0-16" value="&lt;b&gt;Worldwide&lt;/b&gt;" style="text;html=1;strokeColor=none;fillColor=none;align=center;verticalAlign=middle;whiteSpace=wrap;rounded=0;" vertex="1" parent="1">
          <mxGeometry x="360" y="90" width="40" height="20" as="geometry" />
        </mxCell>
        <mxCell id="GcwQqaIXfLsDvNdTefa0-17" value="" style="rounded=1;whiteSpace=wrap;html=1;arcSize=11;" vertex="1" parent="1">
          <mxGeometry x="80" y="150" width="130" height="70" as="geometry" />
        </mxCell>
        <mxCell id="GcwQqaIXfLsDvNdTefa0-20" value="&lt;b&gt;Coronavirus cases&lt;/b&gt;" style="text;html=1;strokeColor=none;fillColor=none;align=left;verticalAlign=middle;whiteSpace=wrap;rounded=0;" vertex="1" parent="1">
          <mxGeometry x="85" y="150" width="120" height="20" as="geometry" />
        </mxCell>
        <mxCell id="GcwQqaIXfLsDvNdTefa0-21" value="&lt;b&gt;+ 2,000&lt;/b&gt;" style="text;html=1;strokeColor=none;fillColor=none;align=center;verticalAlign=middle;whiteSpace=wrap;rounded=0;" vertex="1" parent="1">
          <mxGeometry x="85" y="175" width="55" height="20" as="geometry" />
        </mxCell>
        <mxCell id="GcwQqaIXfLsDvNdTefa0-22" value="&lt;b&gt;1.2 M total&lt;/b&gt;" style="text;html=1;strokeColor=none;fillColor=none;align=center;verticalAlign=middle;whiteSpace=wrap;rounded=0;" vertex="1" parent="1">
          <mxGeometry x="80" y="195" width="87" height="20" as="geometry" />
        </mxCell>
        <mxCell id="GcwQqaIXfLsDvNdTefa0-25" value="" style="rounded=1;whiteSpace=wrap;html=1;arcSize=11;" vertex="1" parent="1">
          <mxGeometry x="220" y="150" width="130" height="70" as="geometry" />
        </mxCell>
        <mxCell id="GcwQqaIXfLsDvNdTefa0-26" value="" style="rounded=1;whiteSpace=wrap;html=1;arcSize=11;" vertex="1" parent="1">
          <mxGeometry x="360" y="150" width="130" height="70" as="geometry" />
        </mxCell>
        <mxCell id="GcwQqaIXfLsDvNdTefa0-27" value="&lt;b&gt;Recovered&lt;/b&gt;" style="text;html=1;strokeColor=none;fillColor=none;align=left;verticalAlign=middle;whiteSpace=wrap;rounded=0;" vertex="1" parent="1">
          <mxGeometry x="225" y="151" width="120" height="20" as="geometry" />
        </mxCell>
        <mxCell id="GcwQqaIXfLsDvNdTefa0-28" value="&lt;b&gt;+ 2,000&lt;/b&gt;" style="text;html=1;strokeColor=none;fillColor=none;align=center;verticalAlign=middle;whiteSpace=wrap;rounded=0;" vertex="1" parent="1">
          <mxGeometry x="225" y="176" width="55" height="20" as="geometry" />
        </mxCell>
        <mxCell id="GcwQqaIXfLsDvNdTefa0-29" value="&lt;b&gt;1.2 M total&lt;/b&gt;" style="text;html=1;strokeColor=none;fillColor=none;align=center;verticalAlign=middle;whiteSpace=wrap;rounded=0;" vertex="1" parent="1">
          <mxGeometry x="220" y="196" width="87" height="20" as="geometry" />
        </mxCell>
        <mxCell id="GcwQqaIXfLsDvNdTefa0-30" value="&lt;b&gt;Deaths&lt;/b&gt;" style="text;html=1;strokeColor=none;fillColor=none;align=left;verticalAlign=middle;whiteSpace=wrap;rounded=0;" vertex="1" parent="1">
          <mxGeometry x="365" y="150" width="120" height="20" as="geometry" />
        </mxCell>
        <mxCell id="GcwQqaIXfLsDvNdTefa0-31" value="&lt;b&gt;+ 2,000&lt;/b&gt;" style="text;html=1;strokeColor=none;fillColor=none;align=center;verticalAlign=middle;whiteSpace=wrap;rounded=0;" vertex="1" parent="1">
          <mxGeometry x="365" y="175" width="55" height="20" as="geometry" />
        </mxCell>
        <mxCell id="GcwQqaIXfLsDvNdTefa0-32" value="&lt;b&gt;1.2 M total&lt;/b&gt;" style="text;html=1;strokeColor=none;fillColor=none;align=center;verticalAlign=middle;whiteSpace=wrap;rounded=0;" vertex="1" parent="1">
          <mxGeometry x="360" y="195" width="87" height="20" as="geometry" />
        </mxCell>
        <mxCell id="GcwQqaIXfLsDvNdTefa0-33" value="" style="rounded=1;whiteSpace=wrap;html=1;arcSize=7;strokeColor=#FFFFFF;fillColor=#F0F7FF;" vertex="1" parent="1">
          <mxGeometry x="80" y="240" width="420" height="235" as="geometry" />
        </mxCell>
        <mxCell id="GcwQqaIXfLsDvNdTefa0-34" value="" style="shape=image;html=1;verticalAlign=top;verticalLabelPosition=bottom;labelBackgroundColor=#ffffff;imageAspect=0;aspect=fixed;image=https://cdn3.iconfinder.com/data/icons/logos-brands-3/24/logo_brand_brands_logos_maps_google-128.png;fillColor=#FFF2CC;" vertex="1" parent="1">
          <mxGeometry x="220" y="294" width="128" height="128" as="geometry" />
        </mxCell>
        <mxCell id="GcwQqaIXfLsDvNdTefa0-35" value="" style="rounded=1;whiteSpace=wrap;html=1;" vertex="1" parent="1">
          <mxGeometry x="512" y="85" width="190" height="395" as="geometry" />
        </mxCell>
        <mxCell id="GcwQqaIXfLsDvNdTefa0-36" value="&lt;b&gt;Cases By Country&lt;/b&gt;" style="text;html=1;strokeColor=none;fillColor=none;align=left;verticalAlign=middle;whiteSpace=wrap;rounded=0;" vertex="1" parent="1">
          <mxGeometry x="530" y="95" width="150" height="20" as="geometry" />
        </mxCell>
        <mxCell id="GcwQqaIXfLsDvNdTefa0-38" value="&lt;b&gt;Worldwide New Cases&lt;/b&gt;" style="text;html=1;strokeColor=none;fillColor=none;align=left;verticalAlign=middle;whiteSpace=wrap;rounded=0;" vertex="1" parent="1">
          <mxGeometry x="530" y="340" width="150" height="20" as="geometry" />
        </mxCell>
        <mxCell id="GcwQqaIXfLsDvNdTefa0-39" value="" style="shape=image;html=1;verticalAlign=top;verticalLabelPosition=bottom;labelBackgroundColor=#ffffff;imageAspect=0;aspect=fixed;image=https://cdn2.iconfinder.com/data/icons/3d-infographics/512/4-128.png;fillColor=#FFF2CC;" vertex="1" parent="1">
          <mxGeometry x="543" y="360" width="127" height="127" as="geometry" />
        </mxCell>
        <mxCell id="GcwQqaIXfLsDvNdTefa0-44" value="" style="shape=table;html=1;whiteSpace=wrap;startSize=0;container=1;collapsible=0;childLayout=tableLayout;columnLines=0;rowLines=0;strokeColor=#6c8ebf;fillColor=#dae8fc;" vertex="1" parent="1">
          <mxGeometry x="520" y="125" width="170" height="205" as="geometry" />
        </mxCell>
        <mxCell id="GcwQqaIXfLsDvNdTefa0-45" value="" style="shape=partialRectangle;html=1;whiteSpace=wrap;collapsible=0;dropTarget=0;pointerEvents=0;fillColor=none;top=0;left=0;bottom=0;right=0;points=[[0,0.5],[1,0.5]];portConstraint=eastwest;" vertex="1" parent="GcwQqaIXfLsDvNdTefa0-44">
          <mxGeometry width="170" height="68" as="geometry" />
        </mxCell>
        <mxCell id="GcwQqaIXfLsDvNdTefa0-46" value="Value 1" style="shape=partialRectangle;html=1;whiteSpace=wrap;connectable=0;fillColor=none;top=0;left=0;bottom=0;right=0;overflow=hidden;" vertex="1" parent="GcwQqaIXfLsDvNdTefa0-45">
          <mxGeometry width="57" height="68" as="geometry" />
        </mxCell>
        <mxCell id="GcwQqaIXfLsDvNdTefa0-47" value="Value 2" style="shape=partialRectangle;html=1;whiteSpace=wrap;connectable=0;fillColor=none;top=0;left=0;bottom=0;right=0;overflow=hidden;" vertex="1" parent="GcwQqaIXfLsDvNdTefa0-45">
          <mxGeometry x="57" width="56" height="68" as="geometry" />
        </mxCell>
        <mxCell id="GcwQqaIXfLsDvNdTefa0-48" value="Value 3" style="shape=partialRectangle;html=1;whiteSpace=wrap;connectable=0;fillColor=none;top=0;left=0;bottom=0;right=0;overflow=hidden;" vertex="1" parent="GcwQqaIXfLsDvNdTefa0-45">
          <mxGeometry x="113" width="57" height="68" as="geometry" />
        </mxCell>
        <mxCell id="GcwQqaIXfLsDvNdTefa0-49" value="" style="shape=partialRectangle;html=1;whiteSpace=wrap;collapsible=0;dropTarget=0;pointerEvents=0;fillColor=none;top=0;left=0;bottom=0;right=0;points=[[0,0.5],[1,0.5]];portConstraint=eastwest;" vertex="1" parent="GcwQqaIXfLsDvNdTefa0-44">
          <mxGeometry y="68" width="170" height="69" as="geometry" />
        </mxCell>
        <mxCell id="GcwQqaIXfLsDvNdTefa0-50" value="Value 4" style="shape=partialRectangle;html=1;whiteSpace=wrap;connectable=0;fillColor=none;top=0;left=0;bottom=0;right=0;overflow=hidden;" vertex="1" parent="GcwQqaIXfLsDvNdTefa0-49">
          <mxGeometry width="57" height="69" as="geometry" />
        </mxCell>
        <mxCell id="GcwQqaIXfLsDvNdTefa0-51" value="Value 5" style="shape=partialRectangle;html=1;whiteSpace=wrap;connectable=0;fillColor=none;top=0;left=0;bottom=0;right=0;overflow=hidden;" vertex="1" parent="GcwQqaIXfLsDvNdTefa0-49">
          <mxGeometry x="57" width="56" height="69" as="geometry" />
        </mxCell>
        <mxCell id="GcwQqaIXfLsDvNdTefa0-52" value="Value 6" style="shape=partialRectangle;html=1;whiteSpace=wrap;connectable=0;fillColor=none;top=0;left=0;bottom=0;right=0;overflow=hidden;" vertex="1" parent="GcwQqaIXfLsDvNdTefa0-49">
          <mxGeometry x="113" width="57" height="69" as="geometry" />
        </mxCell>
        <mxCell id="GcwQqaIXfLsDvNdTefa0-53" value="" style="shape=partialRectangle;html=1;whiteSpace=wrap;collapsible=0;dropTarget=0;pointerEvents=0;fillColor=none;top=0;left=0;bottom=0;right=0;points=[[0,0.5],[1,0.5]];portConstraint=eastwest;" vertex="1" parent="GcwQqaIXfLsDvNdTefa0-44">
          <mxGeometry y="137" width="170" height="68" as="geometry" />
        </mxCell>
        <mxCell id="GcwQqaIXfLsDvNdTefa0-54" value="Value 7" style="shape=partialRectangle;html=1;whiteSpace=wrap;connectable=0;fillColor=none;top=0;left=0;bottom=0;right=0;overflow=hidden;" vertex="1" parent="GcwQqaIXfLsDvNdTefa0-53">
          <mxGeometry width="57" height="68" as="geometry" />
        </mxCell>
        <mxCell id="GcwQqaIXfLsDvNdTefa0-55" value="Value 8" style="shape=partialRectangle;html=1;whiteSpace=wrap;connectable=0;fillColor=none;top=0;left=0;bottom=0;right=0;overflow=hidden;" vertex="1" parent="GcwQqaIXfLsDvNdTefa0-53">
          <mxGeometry x="57" width="56" height="68" as="geometry" />
        </mxCell>
        <mxCell id="GcwQqaIXfLsDvNdTefa0-56" value="Value 9" style="shape=partialRectangle;html=1;whiteSpace=wrap;connectable=0;fillColor=none;top=0;left=0;bottom=0;right=0;overflow=hidden;" vertex="1" parent="GcwQqaIXfLsDvNdTefa0-53">
          <mxGeometry x="113" width="57" height="68" as="geometry" />
        </mxCell>
      </root>
    </mxGraphModel>
  </diagram>
</mxfile>
